<svg width="246" height="71" viewBox="0 0 246 71" fill="none" xmlns="http://www.w3.org/2000/svg">
<rect x="1" y="1" width="244" height="69" rx="3" stroke="white" stroke-width="2"/>
<path d="M89.1392 23V13.032H93.1712C94.7205 13.032 95.9105 13.4613 96.7412 14.32C97.5812 15.1787 98.0012 16.4107 98.0012 18.016C98.0012 19.6213 97.5812 20.8533 96.7412 21.712C95.9105 22.5707 94.7205 23 93.1712 23H89.1392ZM91.3092 21.18H92.9052C94.8372 21.18 95.8032 20.1253 95.8032 18.016C95.8032 16.9987 95.5605 16.2193 95.0752 15.678C94.5992 15.1273 93.8758 14.852 92.9052 14.852H91.3092V21.18ZM102.848 15.566C103.959 15.566 104.85 15.916 105.522 16.616C106.203 17.316 106.544 18.24 106.544 19.388C106.544 20.5453 106.203 21.474 105.522 22.174C104.85 22.874 103.949 23.224 102.82 23.224C101.691 23.224 100.785 22.874 100.104 22.174C99.4228 21.474 99.0821 20.5453 99.0821 19.388C99.0821 18.24 99.4275 17.316 100.118 16.616C100.809 15.916 101.719 15.566 102.848 15.566ZM102.792 17.078C102.26 17.078 101.84 17.2833 101.532 17.694C101.224 18.1047 101.07 18.6693 101.07 19.388C101.07 20.1253 101.224 20.6993 101.532 21.11C101.84 21.5207 102.269 21.726 102.82 21.726C103.371 21.726 103.795 21.5207 104.094 21.11C104.402 20.69 104.556 20.1113 104.556 19.374C104.556 18.6553 104.397 18.0953 104.08 17.694C103.772 17.2833 103.343 17.078 102.792 17.078ZM107.165 15.776H109.279L110.623 20.69L111.841 15.776H113.759L115.019 20.662L116.363 15.776H118.393L116.111 23H114.067L112.779 18.142L111.533 23H109.475L107.165 15.776ZM126.057 23H124.041V18.786C124.041 18.2727 123.957 17.8853 123.789 17.624C123.621 17.3533 123.294 17.218 122.809 17.218C121.764 17.218 121.241 17.8527 121.241 19.122V23H119.267V15.776H121.157V16.784C121.754 15.9813 122.552 15.58 123.551 15.58C124.326 15.58 124.937 15.804 125.385 16.252C125.833 16.7 126.057 17.3393 126.057 18.17V23ZM129.596 13.032V23H127.608V13.032H129.596ZM134.717 15.566C135.828 15.566 136.719 15.916 137.391 16.616C138.073 17.316 138.413 18.24 138.413 19.388C138.413 20.5453 138.073 21.474 137.391 22.174C136.719 22.874 135.819 23.224 134.689 23.224C133.56 23.224 132.655 22.874 131.973 22.174C131.292 21.474 130.951 20.5453 130.951 19.388C130.951 18.24 131.297 17.316 131.987 16.616C132.678 15.916 133.588 15.566 134.717 15.566ZM134.661 17.078C134.129 17.078 133.709 17.2833 133.401 17.694C133.093 18.1047 132.939 18.6693 132.939 19.388C132.939 20.1253 133.093 20.6993 133.401 21.11C133.709 21.5207 134.139 21.726 134.689 21.726C135.24 21.726 135.665 21.5207 135.963 21.11C136.271 20.69 136.425 20.1113 136.425 19.374C136.425 18.6553 136.267 18.0953 135.949 17.694C135.641 17.2833 135.212 17.078 134.661 17.078ZM146.44 23H144.424C144.359 22.8133 144.312 22.58 144.284 22.3C143.677 22.9067 142.898 23.21 141.946 23.21C141.143 23.21 140.513 23.0187 140.056 22.636C139.599 22.244 139.37 21.7073 139.37 21.026C139.37 20.718 139.407 20.4473 139.482 20.214C139.566 19.9807 139.697 19.7847 139.874 19.626C140.061 19.4673 140.233 19.3367 140.392 19.234C140.56 19.1313 140.789 19.0473 141.078 18.982C141.367 18.9167 141.601 18.87 141.778 18.842C141.955 18.8047 142.203 18.7673 142.52 18.73C143.22 18.6367 143.687 18.5387 143.92 18.436C144.163 18.3333 144.284 18.142 144.284 17.862C144.284 17.218 143.85 16.896 142.982 16.896C142.525 16.896 142.189 16.98 141.974 17.148C141.759 17.3067 141.619 17.5913 141.554 18.002H139.692C139.804 16.378 140.919 15.566 143.038 15.566C145.138 15.566 146.188 16.35 146.188 17.918V21.04C146.188 21.9547 146.272 22.608 146.44 23ZM144.27 19.486C144.037 19.626 143.57 19.752 142.87 19.864C142.282 19.9573 141.899 20.074 141.722 20.214C141.517 20.382 141.414 20.6247 141.414 20.942C141.414 21.2407 141.507 21.4787 141.694 21.656C141.89 21.824 142.161 21.908 142.506 21.908C143.038 21.908 143.463 21.768 143.78 21.488C144.107 21.1987 144.27 20.802 144.27 20.298V19.486ZM154.801 23H152.925V22.076C152.449 22.8227 151.721 23.196 150.741 23.196C149.742 23.196 148.944 22.8507 148.347 22.16C147.759 21.46 147.465 20.5267 147.465 19.36C147.465 18.2213 147.75 17.3067 148.319 16.616C148.898 15.9253 149.668 15.58 150.629 15.58C151.077 15.58 151.497 15.6733 151.889 15.86C152.29 16.0467 152.603 16.3173 152.827 16.672V13.032H154.801V23ZM152.897 19.374C152.897 18.674 152.743 18.128 152.435 17.736C152.136 17.344 151.716 17.148 151.175 17.148C150.634 17.148 150.214 17.344 149.915 17.736C149.616 18.128 149.467 18.6693 149.467 19.36C149.467 20.06 149.616 20.6107 149.915 21.012C150.223 21.404 150.643 21.6 151.175 21.6C151.726 21.6 152.15 21.4087 152.449 21.026C152.748 20.634 152.897 20.0833 152.897 19.374ZM166.934 23H164.918C164.853 22.8133 164.806 22.58 164.778 22.3C164.171 22.9067 163.392 23.21 162.44 23.21C161.637 23.21 161.007 23.0187 160.55 22.636C160.093 22.244 159.864 21.7073 159.864 21.026C159.864 20.718 159.901 20.4473 159.976 20.214C160.06 19.9807 160.191 19.7847 160.368 19.626C160.555 19.4673 160.727 19.3367 160.886 19.234C161.054 19.1313 161.283 19.0473 161.572 18.982C161.861 18.9167 162.095 18.87 162.272 18.842C162.449 18.8047 162.697 18.7673 163.014 18.73C163.714 18.6367 164.181 18.5387 164.414 18.436C164.657 18.3333 164.778 18.142 164.778 17.862C164.778 17.218 164.344 16.896 163.476 16.896C163.019 16.896 162.683 16.98 162.468 17.148C162.253 17.3067 162.113 17.5913 162.048 18.002H160.186C160.298 16.378 161.413 15.566 163.532 15.566C165.632 15.566 166.682 16.35 166.682 17.918V21.04C166.682 21.9547 166.766 22.608 166.934 23ZM164.764 19.486C164.531 19.626 164.064 19.752 163.364 19.864C162.776 19.9573 162.393 20.074 162.216 20.214C162.011 20.382 161.908 20.6247 161.908 20.942C161.908 21.2407 162.001 21.4787 162.188 21.656C162.384 21.824 162.655 21.908 163 21.908C163.532 21.908 163.957 21.768 164.274 21.488C164.601 21.1987 164.764 20.802 164.764 20.298V19.486ZM170.129 15.776V16.672C170.652 15.944 171.398 15.58 172.369 15.58C173.34 15.58 174.119 15.93 174.707 16.63C175.295 17.33 175.589 18.2633 175.589 19.43C175.589 20.5593 175.3 21.4693 174.721 22.16C174.152 22.8413 173.396 23.182 172.453 23.182C171.482 23.182 170.74 22.8227 170.227 22.104V25.562H168.253V15.776H170.129ZM171.879 17.176C171.338 17.176 170.913 17.372 170.605 17.764C170.306 18.156 170.157 18.702 170.157 19.402C170.157 20.102 170.311 20.648 170.619 21.04C170.927 21.432 171.352 21.628 171.893 21.628C172.425 21.628 172.84 21.432 173.139 21.04C173.447 20.648 173.601 20.1113 173.601 19.43C173.601 18.73 173.447 18.1793 173.139 17.778C172.831 17.3767 172.411 17.176 171.879 17.176ZM183.826 15.776L181.11 18.45L184.148 23H181.74L179.752 19.794L178.94 20.55V23H176.994V13.032H178.94V18.366L181.488 15.776H183.826ZM195.327 15.748H193.437C193.251 15.0107 192.812 14.642 192.121 14.642C191.029 14.642 190.409 15.6127 190.259 17.554C190.801 16.8167 191.529 16.448 192.443 16.448C193.339 16.448 194.072 16.7513 194.641 17.358C195.22 17.9647 195.509 18.7393 195.509 19.682C195.519 20.6993 195.192 21.5347 194.529 22.188C193.876 22.8413 193.041 23.168 192.023 23.168C190.866 23.168 189.961 22.7433 189.307 21.894C188.654 21.0353 188.327 19.8407 188.327 18.31C188.327 16.6953 188.668 15.4307 189.349 14.516C190.031 13.592 190.964 13.13 192.149 13.13C193.036 13.13 193.755 13.3587 194.305 13.816C194.865 14.2733 195.206 14.9173 195.327 15.748ZM191.981 17.932C191.533 17.932 191.165 18.1047 190.875 18.45C190.586 18.7953 190.441 19.2293 190.441 19.752C190.441 20.284 190.586 20.718 190.875 21.054C191.165 21.39 191.538 21.558 191.995 21.558C192.453 21.558 192.831 21.3853 193.129 21.04C193.428 20.6947 193.577 20.2607 193.577 19.738C193.577 19.2153 193.428 18.786 193.129 18.45C192.831 18.1047 192.448 17.932 191.981 17.932ZM198.823 20.816V23H196.611V20.816H198.823ZM203.573 13.144C204.114 13.144 204.595 13.2467 205.015 13.452C205.444 13.6573 205.79 13.9233 206.051 14.25C206.312 14.5767 206.527 14.964 206.695 15.412C206.872 15.86 206.994 16.308 207.059 16.756C207.124 17.204 207.157 17.6753 207.157 18.17C207.157 19.7287 206.84 20.9513 206.205 21.838C205.57 22.7247 204.698 23.168 203.587 23.168C202.448 23.168 201.557 22.7293 200.913 21.852C200.278 20.9653 199.961 19.738 199.961 18.17C199.961 17.5447 200.022 16.9567 200.143 16.406C200.264 15.846 200.456 15.314 200.717 14.81C200.978 14.2967 201.352 13.8907 201.837 13.592C202.332 13.2933 202.91 13.144 203.573 13.144ZM203.559 14.782C203.298 14.782 203.069 14.838 202.873 14.95C202.677 15.062 202.518 15.23 202.397 15.454C202.285 15.6687 202.192 15.8787 202.117 16.084C202.052 16.28 202.005 16.5413 201.977 16.868C201.949 17.1853 201.93 17.428 201.921 17.596C201.921 17.764 201.921 17.988 201.921 18.268C201.921 20.4613 202.472 21.558 203.573 21.558C204.656 21.558 205.197 20.4287 205.197 18.17C205.197 17.0033 205.066 16.1493 204.805 15.608C204.544 15.0573 204.128 14.782 203.559 14.782ZM210.89 23V20.074H208.006V18.66H210.89V15.734H212.402V18.66H215.286V20.074H212.402V23H210.89Z" fill="white"/>
<path d="M101.859 30.758L111.209 55H106.653L104.341 48.574H94.7528L92.3728 55H87.9868L97.3368 30.758H101.859ZM103.219 45.378L99.6148 35.178L95.8408 45.378H103.219ZM116.683 37.456V40.04C118.088 38 120.026 36.98 122.497 36.98C124.491 36.98 125.976 37.524 126.951 38.612C127.948 39.7 128.447 41.264 128.447 43.304V55H124.571V44.8C124.571 44.0973 124.537 43.5193 124.469 43.066C124.401 42.59 124.253 42.114 124.027 41.638C123.823 41.162 123.483 40.8107 123.007 40.584C122.531 40.3347 121.919 40.21 121.171 40.21C118.315 40.21 116.887 41.9893 116.887 45.548V55H113.011V37.456H116.683ZM149.126 30.792V55H145.488V52.586C144.377 54.5127 142.507 55.476 139.878 55.476C137.407 55.476 135.435 54.6373 133.962 52.96C132.511 51.2827 131.786 49.0273 131.786 46.194C131.786 43.3833 132.5 41.1507 133.928 39.496C135.379 37.8187 137.317 36.98 139.742 36.98C142.213 36.98 144.071 37.898 145.318 39.734V30.792H149.126ZM140.456 40.108C138.983 40.108 137.815 40.652 136.954 41.74C136.115 42.8053 135.696 44.2673 135.696 46.126C135.696 48.0527 136.127 49.5713 136.988 50.682C137.872 51.7927 139.073 52.348 140.592 52.348C142.111 52.348 143.289 51.804 144.128 50.716C144.989 49.628 145.42 48.1207 145.42 46.194C145.42 44.2673 144.978 42.7713 144.094 41.706C143.233 40.6407 142.02 40.108 140.456 40.108ZM163.213 37.116V40.822C162.533 40.754 162.08 40.72 161.853 40.72C158.476 40.72 156.787 42.9073 156.787 47.282V55H152.945V37.456H156.583V40.958C157.83 38.3513 159.79 37.048 162.465 37.048L163.213 37.116ZM172.767 36.946C175.441 36.946 177.572 37.7847 179.159 39.462C180.745 41.1393 181.539 43.3947 181.539 46.228C181.539 49.084 180.745 51.3507 179.159 53.028C177.595 54.7053 175.464 55.544 172.767 55.544C170.024 55.544 167.848 54.7053 166.239 53.028C164.629 51.3507 163.825 49.084 163.825 46.228C163.825 43.3947 164.629 41.1393 166.239 39.462C167.871 37.7847 170.047 36.946 172.767 36.946ZM176.303 41.672C175.441 40.5613 174.24 40.006 172.699 40.006C171.157 40.006 169.945 40.5613 169.061 41.672C168.177 42.7827 167.735 44.3013 167.735 46.228C167.735 48.2 168.177 49.7413 169.061 50.852C169.945 51.9627 171.169 52.518 172.733 52.518C174.251 52.518 175.441 51.9627 176.303 50.852C177.187 49.7187 177.629 48.166 177.629 46.194C177.629 44.2673 177.187 42.76 176.303 41.672ZM188.773 30.69V34.498H184.897V30.69H188.773ZM188.773 37.456V55H184.897V37.456H188.773ZM209.622 30.792V55H205.984V52.586C204.873 54.5127 203.003 55.476 200.374 55.476C197.903 55.476 195.931 54.6373 194.458 52.96C193.007 51.2827 192.282 49.0273 192.282 46.194C192.282 43.3833 192.996 41.1507 194.424 39.496C195.875 37.8187 197.813 36.98 200.238 36.98C202.709 36.98 204.567 37.898 205.814 39.734V30.792H209.622ZM200.952 40.108C199.479 40.108 198.311 40.652 197.45 41.74C196.611 42.8053 196.192 44.2673 196.192 46.126C196.192 48.0527 196.623 49.5713 197.484 50.682C198.368 51.7927 199.569 52.348 201.088 52.348C202.607 52.348 203.785 51.804 204.624 50.716C205.485 49.628 205.916 48.1207 205.916 46.194C205.916 44.2673 205.474 42.7713 204.59 41.706C203.729 40.6407 202.516 40.108 200.952 40.108Z" fill="white"/>
<path d="M22.3742 26.0085C20.5107 26.0085 19 27.5192 19 29.3827V45.129C19 46.9925 20.5107 48.5032 22.3742 48.5032C24.2377 48.5032 25.7484 46.9925 25.7484 45.129V29.3827C25.7484 27.5192 24.2377 26.0085 22.3742 26.0085Z" fill="white"/>
<path d="M60.6152 26.0085C58.7517 26.0085 57.241 27.5192 57.241 29.3827V45.129C57.241 46.9925 58.7517 48.5032 60.6152 48.5032C62.4787 48.5032 63.9894 46.9925 63.9894 45.129V29.3827C63.9894 27.5192 62.4788 26.0085 60.6152 26.0085Z" fill="white"/>
<path d="M53.8667 26.0085H29.1226C28.5014 26.0085 27.9978 26.5121 27.9978 27.1333V45.129C27.9973 47.8018 29.878 50.1056 32.4968 50.6402V58.6258C32.4968 60.4893 34.0075 62 35.871 62C37.7345 62 39.2452 60.4893 39.2452 58.6258V50.7526H43.7442V58.6258C43.7442 60.4893 45.2549 62 47.1184 62C48.9819 62 50.4926 60.4893 50.4926 58.6258V50.6402C53.1114 50.1056 54.9921 47.8018 54.9916 45.129V27.1333C54.9915 26.5121 54.4879 26.0085 53.8667 26.0085Z" fill="white"/>
<path fill-rule="evenodd" clip-rule="evenodd" d="M49.6715 12.6736L52.4136 9.93374C52.8604 9.50216 52.8727 8.7902 52.4412 8.34332C52.0097 7.89656 51.2977 7.88422 50.8508 8.3157C50.8414 8.32477 50.8323 8.33394 50.8232 8.34332L47.629 11.5376C43.7168 9.83821 39.2748 9.83821 35.3626 11.5376L32.1684 8.34111C31.7216 7.90953 31.0095 7.92197 30.578 8.36874C30.157 8.80464 30.157 9.49562 30.578 9.93142L33.3178 12.6735C29.9777 14.8836 27.9772 18.6291 27.9978 22.6342C27.9978 23.2553 28.5014 23.7589 29.1226 23.7589H53.8668C54.488 23.7589 54.9916 23.2553 54.9916 22.6342C55.0122 18.6292 53.0117 14.8837 49.6715 12.6736ZM35.8711 19.26C36.4923 19.26 36.9959 18.7565 36.9959 18.1353C36.9959 17.5141 36.4923 17.0105 35.8711 17.0105C35.2499 17.0105 34.7463 17.5141 34.7463 18.1353C34.7463 18.7565 35.2499 19.26 35.8711 19.26ZM48.2432 18.1353C48.2432 18.7565 47.7396 19.26 47.1184 19.26C46.4972 19.26 45.9936 18.7565 45.9936 18.1353C45.9936 17.5141 46.4972 17.0105 47.1184 17.0105C47.7396 17.0105 48.2432 17.5141 48.2432 18.1353Z" fill="white"/>
</svg>
